PathFileType	4	(X/Y/Z)	/Users/itak/Documents/Research/Walk-IL/dataset/trc/00091_00006.trc
DataRate	CameraRate	NumFrames	NumMarkers	Units	OrigDataRate	OrigDataStartFrame	OrigNumFrames
100.000000	100.000000	4	53	mm	100.000000	64	517
Frame#	Time	RPSI			LPSI			L3			STRN			T10			C7			CLAV			RBAK			LBAK			LSHO			LUPA			LAEL			LAOL			LWTS			LWPS			LFRA			LHPS			LHTS			RSHO			RUPA			RAEL			RAOL			RWTS			RWPS			RFRA			RIFD			RHTS			RBHD			LFHD			RFHD			LBHD			LHIP			RHIP			RASI			LASI			LKNE			LTHI			LANK			LTIP			LTOE			LMT1			LMT5			LHEE			RKNE			RTHI			RANK			RTIP			RTOE			RMT1			RMT5			LIFD			RHPS			RHEE			
		X1	Y1	Z1	X2	Y2	Z2	X3	Y3	Z3	X4	Y4	Z4	X5	Y5	Z5	X6	Y6	Z6	X7	Y7	Z7	X8	Y8	Z8	X9	Y9	Z9	X10	Y10	Z10	X11	Y11	Z11	X12	Y12	Z12	X13	Y13	Z13	X14	Y14	Z14	X15	Y15	Z15	X16	Y16	Z16	X17	Y17	Z17	X18	Y18	Z18	X19	Y19	Z19	X20	Y20	Z20	X21	Y21	Z21	X22	Y22	Z22	X23	Y23	Z23	X24	Y24	Z24	X25	Y25	Z25	X26	Y26	Z26	X27	Y27	Z27	X28	Y28	Z28	X29	Y29	Z29	X30	Y30	Z30	X31	Y31	Z31	X32	Y32	Z32	X33	Y33	Z33	X34	Y34	Z34	X35	Y35	Z35	X36	Y36	Z36	X37	Y37	Z37	X38	Y38	Z38	X39	Y39	Z39	X40	Y40	Z40	X41	Y41	Z41	X42	Y42	Z42	X43	Y43	Z43	X44	Y44	Z44	X45	Y45	Z45	X46	Y46	Z46	X47	Y47	Z47	X48	Y48	Z48	X49	Y49	Z49	X50	Y50	Z50	X51	Y51	Z51	X52	Y52	Z52	X53	Y53	Z53	

65	0.64	-1354.986450195312	1033.772705078125	-151.4826965332031	-1364.961059570312	1024.120971679688	-326.6104431152344	-1357.30615234375	1085.432983398438	-245.4999542236328	-1107.309326171875	1289.712646484375	-238.1477355957031	-1377.380737304688	1220.40234375	-251.0908050537109	-1319.156127929688	1487.429565429688	-251.8985137939453	-1138.628173828125	1403.948608398438	-241.3095245361328	-1384.213745117188	1347.948364257812	-179.1668090820312	-1335.16748046875	1449.37548828125	-355.4173583984375	-1227.98974609375	1455.0234375	-422.53515625	-1237.380737304688	1325.805541992188	-499.3008117675781	-1210.351196289062	1110.587890625	-511.9909057617188	-1278.893798828125	1096.203369140625	-431.4796447753906	-1115.822143554688	877.5897827148438	-433.0477294921875	-1168.084106445312	861.7157592773438	-496.2584838867188	-1185.350341796875	1002.193176269531	-513.9830932617188	-1131.612548828125	783.0222778320312	-486.5987854003906	-1087.838500976562	797.7776489257812	-431.7867431640625	-1264.406494140625	1449.724243164062	-72.46743774414062	-1276.416137695312	1378.396728515625	-8.707834243774414	-1294.988037109375	1109.63037109375	8.18128490447998	-1277.436645507812	1092.318115234375	-88.55352783203125	-1144.152221679688	864.6746826171875	-30.14083099365234	-1216.316162109375	845.9420776367188	16.54008483886719	-1279.877807617188	1031.2021484375	12.24554061889648	-1131.162719726562	678.7788696289062	-50.85324478149414	-1115.074584960938	765.3516235351562	-29.80382537841797	-1293.03564453125	1657.038452148438	-181.4765930175781	-1098.974731445312	1705.376708984375	-278.5109252929688	-1128.144897460938	1696.316650390625	-155.9155578613281	-1270.570922851562	1673.800659179688	-316.4842224121094	-1257.427001953125	960.8966674804688	-413.1857299804688	-1286.106811523438	964.1085815429688	-72.64238739013672	-1162.4189453125	985.01953125	-93.82164001464844	-1146.413940429688	975.5385131835938	-361.9764404296875	-1168.580810546875	501.1604614257812	-347.4234924316406	-1204.303588867188	638.8779296875	-388.3973693847656	-1311.048950195312	51.49214172363281	-355.2037963867188	-1244.045043945312	261.45556640625	-365.0549011230469	-1103.971435546875	44.97959899902344	-343.0075073242188	-1153.535400390625	46.46602249145508	-292.3524780273438	-1206.51611328125	42.07103729248047	-389.7240905761719	-1363.92626953125	49.33250427246094	-279.4819946289062	-1191.1767578125	521.0615234375	-106.9197769165039	-1197.288452148438	790.7972412109375	-67.52769470214844	-1295.337036132812	46.1757926940918	-116.0294647216797	-1213.450561523438	396.7609252929688	-104.1395111083984	-1083.933349609375	42.598388671875	-172.8504638671875	-1148.096923828125	48.69696426391602	-206.4772491455078	-1170.192016601562	49.63085556030273	-111.6918716430664	-1098.642333984375	696.4571533203125	-401.7474060058594	-1175.755493164062	758.8585815429688	21.39682197570801	-1346.18896484375	46.19397354125977	-168.4815673828125	
66	0.65	-1354.927124023438	1033.76904296875	-151.5110626220703	-1364.856811523438	1024.10400390625	-326.6015625	-1357.221435546875	1085.43408203125	-245.5158538818359	-1107.218994140625	1289.668701171875	-238.1973419189453	-1377.232421875	1220.405029296875	-251.1230316162109	-1319.025634765625	1487.408203125	-251.9101104736328	-1138.54931640625	1403.904296875	-241.3246917724609	-1384.097900390625	1347.944213867188	-179.2058715820312	-1335.02978515625	1449.370849609375	-355.4578552246094	-1227.8271484375	1455.049072265625	-422.5524291992188	-1237.164794921875	1325.87255859375	-499.3839111328125	-1210.034912109375	1110.732421875	-512.343994140625	-1278.54248046875	1096.181762695312	-431.8082275390625	-1115.336791992188	877.66357421875	-433.8806457519531	-1167.600341796875	861.8504638671875	-497.0617370605469	-1184.9169921875	1002.361022949219	-514.5103759765625	-1131.096313476562	783.1795043945312	-487.5707397460938	-1087.310913085938	797.8291625976562	-432.7783813476562	-1264.261962890625	1449.705932617188	-72.50590515136719	-1276.25	1378.373413085938	-8.742671966552734	-1294.811279296875	1109.594604492188	8.142049789428711	-1277.306030273438	1092.302856445312	-88.58807373046875	-1143.70947265625	864.8220825195312	-30.32093620300293	-1215.807250976562	845.947509765625	16.34405899047852	-1279.620849609375	1031.133422851562	12.20498752593994	-1130.43408203125	678.9088134765625	-51.22327423095703	-1114.550537109375	765.5365600585938	-30.06500244140625	-1292.906616210938	1657.095703125	-181.5057067871094	-1098.771728515625	1705.347534179688	-278.5861206054688	-1127.94775390625	1696.267333984375	-155.9378356933594	-1270.381958007812	1673.794677734375	-316.47900390625	-1257.342651367188	960.8795776367188	-413.1923828125	-1285.994262695312	964.0997924804688	-72.66342926025391	-1162.297973632812	985.0449829101562	-93.84766387939453	-1146.359619140625	975.5006713867188	-361.9877319335938	-1168.522583007812	501.14208984375	-347.4268798828125	-1204.167358398438	638.846435546875	-388.3849792480469	-1311.04248046875	51.50603103637695	-355.1963806152344	-1244.006469726562	261.4455261230469	-365.0557556152344	-1103.955688476562	44.97519302368164	-343.0072021484375	-1153.5185546875	46.45643615722656	-292.3421325683594	-1206.50830078125	42.05563735961914	-389.7120666503906	-1363.921508789062	49.34621429443359	-279.4758605957031	-1191.052001953125	521.0626220703125	-106.9361114501953	-1196.904541015625	790.8425903320312	-67.57598876953125	-1295.337646484375	46.1737174987793	-116.0278167724609	-1213.418090820312	396.75048828125	-104.1251449584961	-1083.927490234375	42.59965896606445	-172.8451690673828	-1148.095581054688	48.70353317260742	-206.4802856445312	-1170.189453125	49.62658309936523	-111.6953811645508	-1098.1533203125	696.4736328125	-403.0277099609375	-1175.212524414062	758.8704833984375	21.18637847900391	-1346.189331054688	46.19612503051758	-168.4840087890625	
67	0.66	-1354.865234375	1033.757568359375	-151.5374450683594	-1364.764526367188	1024.08203125	-326.5926513671875	-1357.133544921875	1085.4345703125	-245.5286102294922	-1107.119018554688	1289.6240234375	-238.2444763183594	-1377.089233398438	1220.4072265625	-251.14990234375	-1318.919189453125	1487.390869140625	-251.9258728027344	-1138.46044921875	1403.866943359375	-241.3375701904297	-1383.982666015625	1347.940307617188	-179.2355804443359	-1334.900512695312	1449.363403320312	-355.4914245605469	-1227.660400390625	1455.075073242188	-422.5588989257812	-1236.974243164062	1325.937744140625	-499.464111328125	-1209.742309570312	1110.878051757812	-512.7086181640625	-1278.188110351562	1096.159790039062	-432.1351013183594	-1114.832397460938	877.7335815429688	-434.7455749511719	-1167.149169921875	861.9860229492188	-497.9019470214844	-1184.4990234375	1002.527770996094	-515.057373046875	-1130.626708984375	783.3409423828125	-488.5912475585938	-1086.864379882812	797.8834838867188	-433.8317565917969	-1264.110473632812	1449.685791015625	-72.53875732421875	-1276.072387695312	1378.35107421875	-8.764634132385254	-1294.640747070312	1109.558349609375	8.106540679931641	-1277.178344726562	1092.283203125	-88.61885833740234	-1143.30517578125	864.949951171875	-30.48752593994141	-1215.28515625	845.9357299804688	16.19115829467773	-1279.367309570312	1031.06640625	12.17574405670166	-1129.74658203125	679.0513916015625	-51.58727264404297	-1114.1171875	765.6889038085938	-30.30924034118652	-1292.7705078125	1657.154052734375	-181.5233917236328	-1098.56787109375	1705.321533203125	-278.6418151855469	-1127.735717773438	1696.209106445312	-155.9554138183594	-1270.18212890625	1673.797729492188	-316.4658203125	-1257.270263671875	960.8649291992188	-413.1999206542969	-1285.881591796875	964.0856323242188	-72.67965698242188	-1162.176879882812	985.0604858398438	-93.87907409667969	-1146.312133789062	975.4519653320312	-361.9852905273438	-1168.47021484375	501.1238708496094	-347.4315185546875	-1204.000122070312	638.802978515625	-388.3650817871094	-1311.035888671875	51.52017211914062	-355.1886901855469	-1243.973388671875	261.4364013671875	-365.05517578125	-1103.940185546875	44.97255706787109	-343.0061950683594	-1153.503051757812	46.4478759765625	-292.3314819335938	-1206.50048828125	42.04028701782227	-389.7013854980469	-1363.916870117188	49.35953521728516	-279.4696655273438	-1190.913330078125	521.0608520507812	-106.9453277587891	-1196.47509765625	790.8701782226562	-67.70515441894531	-1295.33740234375	46.16950607299805	-116.024169921875	-1213.371704101562	396.7463684082031	-104.1000061035156	-1083.9208984375	42.60280609130859	-172.8380279541016	-1148.09423828125	48.71369552612305	-206.4812927246094	-1170.186645507812	49.61180877685547	-111.6965179443359	-1097.766479492188	696.4798583984375	-404.4590454101562	-1174.728149414062	758.8684692382812	21.0011157989502	-1346.1904296875	46.19902038574219	-168.4859008789062	
68	0.67	-1354.799682617188	1033.740112304688	-151.5623626708984	-1364.680908203125	1024.058349609375	-326.5857543945312	-1357.038696289062	1085.434204101562	-245.5383605957031	-1107.007446289062	1289.580322265625	-238.289306640625	-1376.948852539062	1220.408325195312	-251.1708221435547	-1318.840209960938	1487.381469726562	-251.9518280029297	-1138.369262695312	1403.835693359375	-241.3486175537109	-1383.8662109375	1347.936401367188	-179.2555389404297	-1334.776245117188	1449.354370117188	-355.5169677734375	-1227.48828125	1455.102294921875	-422.5533447265625	-1236.81005859375	1326.00146484375	-499.5404968261719	-1209.47412109375	1111.024658203125	-513.0823364257812	-1277.833862304688	1096.138061523438	-432.4603271484375	-1114.321655273438	877.7962036132812	-435.6409606933594	-1166.73779296875	862.1243896484375	-498.7746276855469	-1184.098266601562	1002.694641113281	-515.6210327148438	-1130.20849609375	783.5038452148438	-489.6561279296875	-1086.466918945312	797.9454345703125	-434.9393310546875	-1263.954711914062	1449.6640625	-72.56482696533203	-1275.887573242188	1378.328125	-8.774706840515137	-1294.47802734375	1109.521484375	8.072749137878418	-1277.05078125	1092.259033203125	-88.64561462402344	-1142.939575195312	865.05517578125	-30.64166450500488	-1214.764404296875	845.9094848632812	16.07644844055176	-1279.117553710938	1031.001342773438	12.15427303314209	-1129.118286132812	679.197509765625	-51.94121551513672	-1113.759765625	765.8023071289062	-30.53352355957031	-1292.61767578125	1657.212036132812	-181.5242156982422	-1098.360595703125	1705.295043945312	-278.6760559082031	-1127.505249023438	1696.143798828125	-155.969970703125	-1269.968383789062	1673.812866210938	-316.4442749023438	-1257.20703125	960.8534545898438	-413.2095031738281	-1285.766723632812	964.0672607421875	-72.69251251220703	-1162.05029296875	985.062744140625	-93.92212677001953	-1146.260009765625	975.3997802734375	-361.9766235351562	-1168.42626953125	501.1061401367188	-347.4378967285156	-1203.799072265625	638.7454833984375	-388.3353881835938	-1311.029663085938	51.53288269042969	-355.1814575195312	-1243.948486328125	261.4287719726562	-365.0532836914062	-1103.9287109375	44.97309112548828	-343.0043029785156	-1153.490844726562	46.44067001342773	-292.3211975097656	-1206.495361328125	42.02979278564453	-389.6923828125	-1363.913208007812	49.37100982666016	-279.4639587402344	-1190.7705078125	521.056396484375	-106.9477081298828	-1196.035400390625	790.8684692382812	-67.91853332519531	-1295.3369140625	46.16360855102539	-116.0187072753906	-1213.313598632812	396.748291015625	-104.0666427612305	-1083.9150390625	42.60866928100586	-172.8292846679688	-1148.0927734375	48.72706604003906	-206.4805145263672	-1170.184936523438	49.58765029907227	-111.6950378417969	-1097.458984375	696.4928588867188	-406.0341796875	-1174.288452148438	758.857666015625	20.83577346801758	-1346.192016601562	46.20124053955078	-168.4863433837891	
